<svg xmlns="http://www.w3.org/2000/svg" viewBox="0 0 500 500" preserveAspectRatio="xMinYMid"><style type="text/css">circle, ellipse, line, path, polygon, polyline, rect, text { fill: #fff !important; }</style><path fill="#231F20" d="M423.9 142.1c-12.8 5.7-26.5 9.5-41 11.2 14.7-8.8 26-22.8 31.4-39.5-13.8 8.2-29.1 14.1-45.3 17.3-13-13.9-31.6-22.5-52.1-22.5-39.4 0-71.4 32-71.4 71.4 0 5.6.6 11 1.8 16.3-59.3-3-111.9-31.4-147.1-74.5-6.1 10.5-9.6 22.8-9.6 35.9 0 24.7 16.5 46.6 35.6 59.4-11.7-.4-28.5-3.6-28.5-9v.9c0 34.6 20.7 63.4 53.4 70-6 1.6-14.2 2.5-20.7 2.5-4.6 0-10-.5-14.4-1.3 9.1 28.4 35 49 66.2 49.6-24.4 19.1-55.5 30.5-88.9 30.5-5.8 0-11.6-.3-17.2-1 31.6 20.2 69.1 32 109.4 32 131.3 0 203.1-108.7 203.1-203 0-3.1-.1-6.2-.2-9.3 13.8-10 25.9-22.6 35.5-36.9z"/></svg>